<svg id="Ebene_1" data-name="Ebene 1" xmlns="http://www.w3.org/2000/svg" viewBox="0 0 231.26 231.26"><defs><style>.cls-1,.cls-2{fill:none;stroke-miterlimit:10;stroke-width:5px;}.cls-1{stroke:#009245;}.cls-2{stroke:#f15a24;}.cls-3{fill:#f7931e;}</style></defs><title>logo-1-noio-05</title><ellipse class="cls-1" cx="137" cy="21.25" rx="25.33" ry="7.8" transform="translate(25.1 103.1) rotate(-45)"/><ellipse class="cls-1" cx="96.57" cy="26.91" rx="6.37" ry="15.63" transform="translate(3.24 63.52) rotate(-36.99)"/><path class="cls-2" d="M115.63,49.49A89.38,89.38,0,0,0,37.77,182.75l-0.55-.52L38.62,223l39.57-1.35-3.31-3.19A89.37,89.37,0,1,0,115.63,49.49Z"/><path class="cls-3" d="M47.64,172.73a74.57,74.57,0,0,0,99.79,33.86l-0.26.13-1.57-3.19,0.26-.13a70.59,70.59,0,1,1,32.34-94.27l3.5-1.72A74.56,74.56,0,0,0,47.64,172.73Z"/></svg>